<svg xmlns="http://www.w3.org/2000/svg" viewBox="0 0 128 128" fill="none">
  <!-- Background circle -->
  <circle cx="64" cy="64" r="64" fill="#6366f1"/>
  
  <!-- Grid of mini app icons representing the collection -->
  <!-- Top Left - Tally Counter -->
  <rect x="20" y="20" width="38" height="38" rx="6" fill="white" fill-opacity="0.95"/>
  <text x="39" y="50" font-family="Arial, sans-serif" font-size="28" font-weight="bold" fill="#6366f1" text-anchor="middle">5</text>
  
  <!-- Top Right - Expense Tracker -->
  <rect x="70" y="20" width="38" height="38" rx="6" fill="white" fill-opacity="0.95"/>
  <path d="M89 32 L89 46 M83 39 L95 39" stroke="#6366f1" stroke-width="3" stroke-linecap="round"/>
  <path d="M83 46 L83 50 L95 50 L95 46" stroke="#6366f1" stroke-width="2.5" stroke-linecap="round" stroke-linejoin="round" fill="none"/>
  
  <!-- Bottom Left - Asset Tracker -->
  <rect x="20" y="70" width="38" height="38" rx="6" fill="white" fill-opacity="0.95"/>
  <rect x="30" y="80" width="18" height="18" rx="2" stroke="#6366f1" stroke-width="2.5" fill="none"/>
  <path d="M33 89 L37 93 L45 83" stroke="#6366f1" stroke-width="2.5" stroke-linecap="round" stroke-linejoin="round" fill="none"/>
  
  <!-- Bottom Right - Todo List -->
  <rect x="70" y="70" width="38" height="38" rx="6" fill="white" fill-opacity="0.95"/>
  <line x1="78" y1="82" x2="100" y2="82" stroke="#6366f1" stroke-width="2.5" stroke-linecap="round"/>
  <line x1="78" y1="89" x2="100" y2="89" stroke="#6366f1" stroke-width="2.5" stroke-linecap="round"/>
  <line x1="78" y1="96" x2="92" y2="96" stroke="#6366f1" stroke-width="2.5" stroke-linecap="round"/>
</svg>
